<svg xmlns="http://www.w3.org/2000/svg" viewBox="0 0 512 512"><defs><linearGradient id="b" x1="0" y1="0" x2="0" y2="1"><stop stop-color="#153846"/><stop offset="1" stop-color="#07171e"/></linearGradient><linearGradient id="f" x1="0" y1="0" x2="1" y2="1"><stop stop-color="#59cbe8"/><stop offset=".48" stop-color="#2c7893"/><stop offset=".5" stop-color="#e6f4f5"/><stop offset="1" stop-color="#9bc3c8"/></linearGradient></defs><rect width="512" height="512" rx="110" fill="url(#b)"/><ellipse cx="248" cy="282" rx="156" ry="82" fill="#020c10" opacity=".5"/><path d="M92 272c78-106 239-106 326 0-87 106-248 106-326 0Z" fill="url(#f)" stroke="#dff9ff" stroke-width="16"/><path d="m408 272 70-66-8 66 8 66Z" fill="#4089a0" stroke="#dff9ff" stroke-width="14"/><circle cx="158" cy="250" r="20" fill="#fff"/><circle cx="160" cy="253" r="9" fill="#081318"/><path d="M198 213c42 25 79 29 124 2M205 240c38 20 75 23 111 0" fill="none" stroke="#0f4c62" stroke-width="12" stroke-linecap="round"/><path d="M188 167h112l-11 48H199Z" fill="#ffc944" stroke="#4a3511" stroke-width="12"/><path d="M176 169c5-44 32-70 67-70s62 26 67 70Z" fill="#ffd85d" stroke="#4a3511" stroke-width="12"/></svg>
